# xmcd CD database file generated by Grip 3.0.7
# 
# Track frame offsets:
#       150
#       19067
#       42157
#       60377
#       76970
#       96202
#       124820
#       143727
#       165715
#       182357
#       223820
#       243990
#       256475
#       277567
# 
# Disc length: 3934 seconds
# 
# Revision: 2
# Processed by: cddbd v1.4PL0 Copyright (c) Steve Scherf et al.
# Submitted via: Grip 3.0.7
# 
DISCID=b50f5c0e
DTITLE=francesco guccini - live collection 1
DYEAR=1900
DGENRE=Country
TTITLE0=canzone per un'amica
TTITLE1=canzone per silvia
TTITLE2=quello che non
TTITLE3=il vecchio e il bambino
TTITLE4=quattro stracci
TTITLE5=cyrano
TTITLE6=venezia
TTITLE7=bologna
TTITLE8=canzone quasi d'amore
TTITLE9=via paolo fabbri 43
TTITLE10=autogrill
TTITLE11=l'isola non trovata
TTITLE12=asia
TTITLE13=un altro giorno è andato
EXTD=
EXTT0=
EXTT1=
EXTT2=
EXTT3=
EXTT4=
EXTT5=
EXTT6=
EXTT7=
EXTT8=
EXTT9=
EXTT10=
EXTT11=
EXTT12=
EXTT13=
PLAYORDER=
